<svg width="495" height="395" viewBox="0 0 495 395" fill="none" xmlns="http://www.w3.org/2000/svg">
<path d="M261.919 286.761C224.903 286.761 189.268 276.752 157.787 254.959C135.844 239.776 110.448 205.49 110.448 147.365C110.448 39.531 165.53 0.175049 276.224 0.175049H475.511L494.7 61.594H291.411C218.351 61.594 174.909 67.2913 174.909 147.365C174.909 173.814 182.367 192.637 197.719 204.902C223.664 225.633 274.094 226.515 304.908 223.545C304.908 223.545 317.551 182.89 319.633 176.29C322.072 168.555 321.004 166.71 313.396 166.71C302.406 166.71 282.65 166.71 261.682 166.71C246.987 166.71 232.551 159.315 232.551 141.551C232.551 124.396 245.982 114.439 264.394 114.439C296.274 114.439 361.932 114.439 374.221 114.439C390.331 114.439 406.772 116.749 398.384 142.253L353.961 276.977C353.964 276.98 317.671 286.761 261.919 286.761V286.761Z" fill="url(#paint0_linear_1013_85)"/>
<path d="M386.335 309.631C363.945 325.307 330.781 333.971 274.507 333.971C177.516 333.971 106.529 299.119 77.5867 231.552C63.9031 199.616 65.2201 163.419 65.2201 114.466H0.76202C0.76202 166.086 -0.126023 206.561 13.6836 243.841C49.8954 341.634 143.146 394.175 268.414 394.175C389.668 394.175 439.914 359.598 472.67 309.631H386.335Z" fill="url(#paint1_linear_1013_85)"/>
<defs>
<linearGradient id="paint0_linear_1013_85" x1="161.86" y1="48.4166" x2="161.86" y2="181.188" gradientUnits="userSpaceOnUse">
<stop stop-color="white"/>
<stop offset="1" stop-color="white"/>
</linearGradient>
<linearGradient id="paint1_linear_1013_85" x1="138.865" y1="48.4166" x2="138.865" y2="181.188" gradientUnits="userSpaceOnUse">
<stop stop-color="white"/>
<stop offset="1" stop-color="white"/>
</linearGradient>
</defs>
</svg>
