<svg xmlns="http://www.w3.org/2000/svg" width="750" height="840" viewBox="0 0 750 840" font-family="Helvetica, Arial, sans-serif" font-size="12">
<rect width="750" height="840" fill="#ffffff"/>
<rect x="0.5" y="0.5" width="149" height="119" fill="none" stroke="#e5e7eb"/>
<line x1="14" x2="136" y1="88" y2="88" stroke="#c7cad1" stroke-dasharray="3 3"/>
<line x1="14" x2="136" y1="14" y2="14" stroke="#c7cad1" stroke-dasharray="3 3"/>
<path d="M14.0 88.0 L15.5 87.1 L17.1 86.2 L18.6 85.2 L20.1 84.3 L21.6 83.4 L23.1 82.5 L24.7 81.5 L26.2 80.6 L27.7 79.7 L29.3 78.8 L30.8 77.8 L32.3 76.9 L33.8 76.0 L35.3 75.0 L36.9 74.1 L38.4 73.2 L39.9 72.3 L41.5 71.3 L43.0 70.4 L44.5 69.5 L46.0 68.6 L47.6 67.7 L49.1 66.7 L50.6 65.8 L52.1 64.9 L53.6 64.0 L55.2 63.0 L56.7 62.1 L58.2 61.2 L59.8 60.3 L61.3 59.3 L62.8 58.4 L64.3 57.5 L65.8 56.5 L67.4 55.6 L68.9 54.7 L70.4 53.8 L71.9 52.9 L73.5 51.9 L75.0 51.0 L76.5 50.1 L78.0 49.1 L79.6 48.2 L81.1 47.3 L82.6 46.4 L84.1 45.5 L85.7 44.5 L87.2 43.6 L88.7 42.7 L90.3 41.8 L91.8 40.8 L93.3 39.9 L94.8 39.0 L96.4 38.0 L97.9 37.1 L99.4 36.2 L100.9 35.3 L102.5 34.4 L104.0 33.4 L105.5 32.5 L107.0 31.6 L108.5 30.6 L110.1 29.7 L111.6 28.8 L113.1 27.9 L114.6 27.0 L116.2 26.0 L117.7 25.1 L119.2 24.2 L120.8 23.3 L122.3 22.3 L123.8 21.4 L125.3 20.5 L126.9 19.5 L128.4 18.6 L129.9 17.7 L131.4 16.8 L132.9 15.9 L134.5 14.9 L136.0 14.0" fill="none" stroke="#4f28a8" stroke-width="2" stroke-linecap="round" stroke-linejoin="round"/>
<text x="75" y="110" text-anchor="middle" fill="#1f2937">linear</text>
<rect x="150.5" y="0.5" width="149" height="119" fill="none" stroke="#e5e7eb"/>
<line x1="164" x2="286" y1="88" y2="88" stroke="#c7cad1" stroke-dasharray="3 3"/>
<line x1="164" x2="286" y1="14" y2="14" stroke="#c7cad1" stroke-dasharray="3 3"/>
<path d="M164.0 88.0 L165.5 88.0 L167.1 88.0 L168.6 87.9 L170.1 87.8 L171.6 87.7 L173.2 87.6 L174.7 87.4 L176.2 87.3 L177.7 87.1 L179.3 86.8 L180.8 86.6 L182.3 86.3 L183.8 86.0 L185.3 85.7 L186.9 85.4 L188.4 85.0 L189.9 84.7 L191.4 84.3 L193.0 83.8 L194.5 83.4 L196.0 82.9 L197.6 82.4 L199.1 81.9 L200.6 81.3 L202.1 80.8 L203.7 80.2 L205.2 79.6 L206.7 78.9 L208.2 78.3 L209.8 77.6 L211.3 76.9 L212.8 76.2 L214.3 75.4 L215.8 74.6 L217.4 73.8 L218.9 73.0 L220.4 72.2 L221.9 71.3 L223.5 70.4 L225.0 69.5 L226.5 68.6 L228.1 67.6 L229.6 66.6 L231.1 65.6 L232.6 64.6 L234.1 63.5 L235.7 62.5 L237.2 61.4 L238.7 60.2 L240.3 59.1 L241.8 57.9 L243.3 56.7 L244.8 55.5 L246.4 54.3 L247.9 53.0 L249.4 51.7 L250.9 50.4 L252.4 49.1 L254.0 47.8 L255.5 46.4 L257.0 45.0 L258.6 43.6 L260.1 42.1 L261.6 40.6 L263.1 39.1 L264.6 37.6 L266.2 36.1 L267.7 34.5 L269.2 33.0 L270.8 31.3 L272.3 29.7 L273.8 28.1 L275.3 26.4 L276.9 24.7 L278.4 23.0 L279.9 21.2 L281.4 19.4 L282.9 17.7 L284.5 15.8 L286.0 14.0" fill="none" stroke="#4f28a8" stroke-width="2" stroke-linecap="round" stroke-linejoin="round"/>
<text x="225" y="110" text-anchor="middle" fill="#1f2937">easeInQuad</text>
<rect x="300.5" y="0.5" width="149" height="119" fill="none" stroke="#e5e7eb"/>
<line x1="314" x2="436" y1="88" y2="88" stroke="#c7cad1" stroke-dasharray="3 3"/>
<line x1="314" x2="436" y1="14" y2="14" stroke="#c7cad1" stroke-dasharray="3 3"/>
<path d="M314.0 88.0 L315.5 86.2 L317.1 84.3 L318.6 82.6 L320.1 80.8 L321.6 79.0 L323.1 77.3 L324.7 75.6 L326.2 73.9 L327.7 72.3 L329.3 70.7 L330.8 69.0 L332.3 67.5 L333.8 65.9 L335.4 64.4 L336.9 62.9 L338.4 61.4 L339.9 59.9 L341.4 58.4 L343.0 57.0 L344.5 55.6 L346.0 54.2 L347.6 52.9 L349.1 51.6 L350.6 50.3 L352.1 49.0 L353.6 47.7 L355.2 46.5 L356.7 45.3 L358.2 44.1 L359.8 42.9 L361.3 41.8 L362.8 40.6 L364.3 39.5 L365.9 38.5 L367.4 37.4 L368.9 36.4 L370.4 35.4 L371.9 34.4 L373.5 33.4 L375.0 32.5 L376.5 31.6 L378.1 30.7 L379.6 29.8 L381.1 29.0 L382.6 28.2 L384.1 27.4 L385.7 26.6 L387.2 25.8 L388.7 25.1 L390.3 24.4 L391.8 23.7 L393.3 23.1 L394.8 22.4 L396.4 21.8 L397.9 21.2 L399.4 20.7 L400.9 20.1 L402.4 19.6 L404.0 19.1 L405.5 18.6 L407.0 18.2 L408.6 17.7 L410.1 17.3 L411.6 17.0 L413.1 16.6 L414.6 16.3 L416.2 16.0 L417.7 15.7 L419.2 15.4 L420.8 15.2 L422.3 14.9 L423.8 14.7 L425.3 14.6 L426.9 14.4 L428.4 14.3 L429.9 14.2 L431.4 14.1 L432.9 14.0 L434.5 14.0 L436.0 14.0" fill="none" stroke="#4f28a8" stroke-width="2" stroke-linecap="round" stroke-linejoin="round"/>
<text x="375" y="110" text-anchor="middle" fill="#1f2937">easeOutQuad</text>
<rect x="450.5" y="0.5" width="149" height="119" fill="none" stroke="#e5e7eb"/>
<line x1="464" x2="586" y1="88" y2="88" stroke="#c7cad1" stroke-dasharray="3 3"/>
<line x1="464" x2="586" y1="14" y2="14" stroke="#c7cad1" stroke-dasharray="3 3"/>
<path d="M464.0 88.0 L465.5 88.0 L467.1 87.9 L468.6 87.8 L470.1 87.6 L471.6 87.4 L473.1 87.2 L474.7 86.9 L476.2 86.5 L477.7 86.1 L479.3 85.7 L480.8 85.2 L482.3 84.7 L483.8 84.1 L485.4 83.5 L486.9 82.8 L488.4 82.1 L489.9 81.3 L491.4 80.5 L493.0 79.7 L494.5 78.8 L496.0 77.8 L497.6 76.8 L499.1 75.8 L500.6 74.7 L502.1 73.5 L503.6 72.4 L505.2 71.1 L506.7 69.9 L508.2 68.6 L509.8 67.2 L511.3 65.8 L512.8 64.3 L514.3 62.8 L515.9 61.3 L517.4 59.7 L518.9 58.0 L520.4 56.3 L522.0 54.6 L523.5 52.8 L525.0 51.0 L526.5 49.2 L528.0 47.4 L529.6 45.7 L531.1 44.0 L532.6 42.3 L534.1 40.7 L535.7 39.2 L537.2 37.7 L538.7 36.2 L540.3 34.8 L541.8 33.4 L543.3 32.1 L544.8 30.9 L546.4 29.6 L547.9 28.5 L549.4 27.3 L550.9 26.2 L552.5 25.2 L554.0 24.2 L555.5 23.3 L557.0 22.3 L558.5 21.5 L560.1 20.7 L561.6 19.9 L563.1 19.2 L564.6 18.5 L566.2 17.9 L567.7 17.3 L569.2 16.8 L570.8 16.3 L572.3 15.9 L573.8 15.5 L575.3 15.1 L576.9 14.8 L578.4 14.6 L579.9 14.4 L581.4 14.2 L583.0 14.1 L584.5 14.0 L586.0 14.0" fill="none" stroke="#4f28a8" stroke-width="2" stroke-linecap="round" stroke-linejoin="round"/>
<text x="525" y="110" text-anchor="middle" fill="#1f2937">easeInOutQuad</text>
<rect x="600.5" y="0.5" width="149" height="119" fill="none" stroke="#e5e7eb"/>
<line x1="614" x2="736" y1="88" y2="88" stroke="#c7cad1" stroke-dasharray="3 3"/>
<line x1="614" x2="736" y1="14" y2="14" stroke="#c7cad1" stroke-dasharray="3 3"/>
<path d="M614.0 88.0 L615.5 88.0 L617.0 88.0 L618.6 88.0 L620.1 88.0 L621.6 88.0 L623.1 88.0 L624.7 88.0 L626.2 87.9 L627.7 87.9 L629.3 87.9 L630.8 87.8 L632.3 87.8 L633.8 87.7 L635.4 87.6 L636.9 87.5 L638.4 87.4 L639.9 87.3 L641.5 87.2 L643.0 87.0 L644.5 86.8 L646.0 86.7 L647.5 86.5 L649.1 86.2 L650.6 86.0 L652.1 85.7 L653.6 85.5 L655.2 85.2 L656.7 84.8 L658.2 84.5 L659.8 84.1 L661.3 83.7 L662.8 83.3 L664.3 82.8 L665.9 82.3 L667.4 81.8 L668.9 81.3 L670.4 80.7 L672.0 80.1 L673.5 79.4 L675.0 78.8 L676.5 78.0 L678.0 77.3 L679.6 76.5 L681.1 75.7 L682.6 74.8 L684.1 73.9 L685.7 73.0 L687.2 72.0 L688.7 71.0 L690.3 69.9 L691.8 68.8 L693.3 67.7 L694.8 66.5 L696.4 65.2 L697.9 64.0 L699.4 62.6 L700.9 61.2 L702.5 59.8 L704.0 58.3 L705.5 56.8 L707.0 55.2 L708.5 53.6 L710.1 51.9 L711.6 50.1 L713.1 48.3 L714.6 46.4 L716.2 44.5 L717.7 42.6 L719.2 40.5 L720.8 38.4 L722.3 36.3 L723.8 34.1 L725.3 31.8 L726.9 29.4 L728.4 27.0 L729.9 24.6 L731.4 22.0 L733.0 19.4 L734.5 16.7 L736.0 14.0" fill="none" stroke="#4f28a8" stroke-width="2" stroke-linecap="round" stroke-linejoin="round"/>
<text x="675" y="110" text-anchor="middle" fill="#1f2937">easeInCubic</text>
<rect x="0.5" y="120.5" width="149" height="119" fill="none" stroke="#e5e7eb"/>
<line x1="14" x2="136" y1="208" y2="208" stroke="#c7cad1" stroke-dasharray="3 3"/>
<line x1="14" x2="136" y1="134" y2="134" stroke="#c7cad1" stroke-dasharray="3 3"/>
<path d="M14.0 208.0 L15.5 205.3 L17.1 202.6 L18.6 200.0 L20.1 197.4 L21.6 195.0 L23.1 192.6 L24.7 190.2 L26.2 187.9 L27.7 185.7 L29.3 183.6 L30.8 181.5 L32.3 179.4 L33.8 177.5 L35.3 175.6 L36.9 173.7 L38.4 171.9 L39.9 170.1 L41.5 168.4 L43.0 166.8 L44.5 165.2 L46.0 163.7 L47.6 162.2 L49.1 160.8 L50.6 159.4 L52.1 158.0 L53.6 156.8 L55.2 155.5 L56.7 154.3 L58.2 153.2 L59.8 152.1 L61.3 151.0 L62.8 150.0 L64.3 149.0 L65.8 148.1 L67.4 147.2 L68.9 146.3 L70.4 145.5 L71.9 144.7 L73.5 144.0 L75.0 143.3 L76.5 142.6 L78.0 141.9 L79.6 141.3 L81.1 140.7 L82.6 140.2 L84.1 139.7 L85.7 139.2 L87.2 138.7 L88.7 138.3 L90.3 137.9 L91.8 137.5 L93.3 137.2 L94.8 136.8 L96.4 136.5 L97.9 136.3 L99.4 136.0 L100.9 135.8 L102.5 135.5 L104.0 135.3 L105.5 135.2 L107.0 135.0 L108.5 134.8 L110.1 134.7 L111.6 134.6 L113.1 134.5 L114.6 134.4 L116.2 134.3 L117.7 134.2 L119.2 134.2 L120.8 134.1 L122.3 134.1 L123.8 134.1 L125.3 134.0 L126.9 134.0 L128.4 134.0 L129.9 134.0 L131.4 134.0 L132.9 134.0 L134.5 134.0 L136.0 134.0" fill="none" stroke="#4f28a8" stroke-width="2" stroke-linecap="round" stroke-linejoin="round"/>
<text x="75" y="230" text-anchor="middle" fill="#1f2937">easeOutCubic</text>
<rect x="150.5" y="120.5" width="149" height="119" fill="none" stroke="#e5e7eb"/>
<line x1="164" x2="286" y1="208" y2="208" stroke="#c7cad1" stroke-dasharray="3 3"/>
<line x1="164" x2="286" y1="134" y2="134" stroke="#c7cad1" stroke-dasharray="3 3"/>
<path d="M164.0 208.0 L165.5 208.0 L167.1 208.0 L168.6 208.0 L170.1 208.0 L171.6 207.9 L173.2 207.9 L174.7 207.8 L176.2 207.7 L177.7 207.6 L179.3 207.4 L180.8 207.2 L182.3 207.0 L183.8 206.7 L185.3 206.4 L186.9 206.0 L188.4 205.6 L189.9 205.2 L191.4 204.6 L193.0 204.0 L194.5 203.4 L196.0 202.6 L197.6 201.8 L199.1 201.0 L200.6 200.0 L202.1 199.0 L203.7 197.8 L205.2 196.6 L206.7 195.3 L208.2 193.9 L209.8 192.4 L211.3 190.8 L212.8 189.1 L214.3 187.2 L215.8 185.3 L217.4 183.2 L218.9 181.0 L220.4 178.7 L221.9 176.3 L223.5 173.7 L225.0 171.0 L226.5 168.3 L228.1 165.7 L229.6 163.3 L231.1 161.0 L232.6 158.8 L234.1 156.7 L235.7 154.8 L237.2 152.9 L238.7 151.2 L240.3 149.6 L241.8 148.1 L243.3 146.7 L244.8 145.4 L246.4 144.2 L247.9 143.0 L249.4 142.0 L250.9 141.0 L252.4 140.2 L254.0 139.4 L255.5 138.6 L257.0 138.0 L258.6 137.4 L260.1 136.8 L261.6 136.4 L263.1 136.0 L264.6 135.6 L266.2 135.3 L267.7 135.0 L269.2 134.8 L270.8 134.6 L272.3 134.4 L273.8 134.3 L275.3 134.2 L276.9 134.1 L278.4 134.1 L279.9 134.0 L281.4 134.0 L282.9 134.0 L284.5 134.0 L286.0 134.0" fill="none" stroke="#4f28a8" stroke-width="2" stroke-linecap="round" stroke-linejoin="round"/>
<text x="225" y="230" text-anchor="middle" fill="#1f2937">easeInOutCubic</text>
<rect x="300.5" y="120.5" width="149" height="119" fill="none" stroke="#e5e7eb"/>
<line x1="314" x2="436" y1="208" y2="208" stroke="#c7cad1" stroke-dasharray="3 3"/>
<line x1="314" x2="436" y1="134" y2="134" stroke="#c7cad1" stroke-dasharray="3 3"/>
<path d="M314.0 208.0 L315.5 208.0 L317.1 208.0 L318.6 208.0 L320.1 208.0 L321.6 208.0 L323.1 208.0 L324.7 208.0 L326.2 208.0 L327.7 208.0 L329.3 208.0 L330.8 208.0 L332.3 208.0 L333.8 207.9 L335.4 207.9 L336.9 207.9 L338.4 207.9 L339.9 207.8 L341.4 207.8 L343.0 207.8 L344.5 207.7 L346.0 207.6 L347.6 207.6 L349.1 207.5 L350.6 207.4 L352.1 207.3 L353.6 207.2 L355.2 207.0 L356.7 206.9 L358.2 206.7 L359.8 206.5 L361.3 206.3 L362.8 206.1 L364.3 205.9 L365.9 205.6 L367.4 205.3 L368.9 205.0 L370.4 204.6 L371.9 204.2 L373.5 203.8 L375.0 203.4 L376.5 202.9 L378.1 202.4 L379.6 201.8 L381.1 201.2 L382.6 200.6 L384.1 199.9 L385.7 199.2 L387.2 198.4 L388.7 197.6 L390.3 196.7 L391.8 195.8 L393.3 194.8 L394.8 193.7 L396.4 192.6 L397.9 191.5 L399.4 190.2 L400.9 188.9 L402.4 187.6 L404.0 186.1 L405.5 184.6 L407.0 183.0 L408.6 181.3 L410.1 179.5 L411.6 177.7 L413.1 175.8 L414.6 173.7 L416.2 171.6 L417.7 169.4 L419.2 167.0 L420.8 164.6 L422.3 162.1 L423.8 159.4 L425.3 156.7 L426.9 153.8 L428.4 150.8 L429.9 147.7 L431.4 144.5 L432.9 141.1 L434.5 137.6 L436.0 134.0" fill="none" stroke="#4f28a8" stroke-width="2" stroke-linecap="round" stroke-linejoin="round"/>
<text x="375" y="230" text-anchor="middle" fill="#1f2937">easeInQuart</text>
<rect x="450.5" y="120.5" width="149" height="119" fill="none" stroke="#e5e7eb"/>
<line x1="464" x2="586" y1="208" y2="208" stroke="#c7cad1" stroke-dasharray="3 3"/>
<line x1="464" x2="586" y1="134" y2="134" stroke="#c7cad1" stroke-dasharray="3 3"/>
<path d="M464.0 208.0 L465.5 204.4 L467.1 200.9 L468.6 197.5 L470.1 194.3 L471.6 191.2 L473.1 188.2 L474.7 185.3 L476.2 182.6 L477.7 179.9 L479.3 177.4 L480.8 175.0 L482.3 172.6 L483.8 170.4 L485.4 168.3 L486.9 166.2 L488.4 164.3 L489.9 162.5 L491.4 160.7 L493.0 159.0 L494.5 157.4 L496.0 155.9 L497.6 154.4 L499.1 153.1 L500.6 151.8 L502.1 150.5 L503.6 149.4 L505.2 148.3 L506.7 147.2 L508.2 146.2 L509.8 145.3 L511.3 144.4 L512.8 143.6 L514.3 142.8 L515.9 142.1 L517.4 141.4 L518.9 140.8 L520.4 140.2 L522.0 139.6 L523.5 139.1 L525.0 138.6 L526.5 138.2 L528.0 137.8 L529.6 137.4 L531.1 137.0 L532.6 136.7 L534.1 136.4 L535.7 136.1 L537.2 135.9 L538.7 135.7 L540.3 135.5 L541.8 135.3 L543.3 135.1 L544.8 135.0 L546.4 134.8 L547.9 134.7 L549.4 134.6 L550.9 134.5 L552.5 134.4 L554.0 134.4 L555.5 134.3 L557.0 134.2 L558.5 134.2 L560.1 134.2 L561.6 134.1 L563.1 134.1 L564.6 134.1 L566.2 134.1 L567.7 134.0 L569.2 134.0 L570.8 134.0 L572.3 134.0 L573.8 134.0 L575.3 134.0 L576.9 134.0 L578.4 134.0 L579.9 134.0 L581.4 134.0 L583.0 134.0 L584.5 134.0 L586.0 134.0" fill="none" stroke="#4f28a8" stroke-width="2" stroke-linecap="round" stroke-linejoin="round"/>
<text x="525" y="230" text-anchor="middle" fill="#1f2937">easeOutQuart</text>
<rect x="600.5" y="120.5" width="149" height="119" fill="none" stroke="#e5e7eb"/>
<line x1="614" x2="736" y1="208" y2="208" stroke="#c7cad1" stroke-dasharray="3 3"/>
<line x1="614" x2="736" y1="134" y2="134" stroke="#c7cad1" stroke-dasharray="3 3"/>
<path d="M614.0 208.0 L615.5 208.0 L617.0 208.0 L618.6 208.0 L620.1 208.0 L621.6 208.0 L623.1 208.0 L624.7 208.0 L626.2 207.9 L627.7 207.9 L629.3 207.9 L630.8 207.8 L632.3 207.7 L633.8 207.6 L635.4 207.4 L636.9 207.3 L638.4 207.1 L639.9 206.8 L641.5 206.5 L643.0 206.1 L644.5 205.7 L646.0 205.2 L647.5 204.6 L649.1 204.0 L650.6 203.2 L652.1 202.4 L653.6 201.4 L655.2 200.3 L656.7 199.1 L658.2 197.8 L659.8 196.3 L661.3 194.7 L662.8 192.8 L664.3 190.9 L665.9 188.7 L667.4 186.3 L668.9 183.7 L670.4 180.9 L672.0 177.9 L673.5 174.6 L675.0 171.0 L676.5 167.4 L678.0 164.1 L679.6 161.1 L681.1 158.3 L682.6 155.7 L684.1 153.3 L685.7 151.1 L687.2 149.2 L688.7 147.3 L690.3 145.7 L691.8 144.2 L693.3 142.9 L694.8 141.7 L696.4 140.6 L697.9 139.6 L699.4 138.8 L700.9 138.0 L702.5 137.4 L704.0 136.8 L705.5 136.3 L707.0 135.9 L708.5 135.5 L710.1 135.2 L711.6 134.9 L713.1 134.7 L714.6 134.6 L716.2 134.4 L717.7 134.3 L719.2 134.2 L720.8 134.1 L722.3 134.1 L723.8 134.1 L725.3 134.0 L726.9 134.0 L728.4 134.0 L729.9 134.0 L731.4 134.0 L733.0 134.0 L734.5 134.0 L736.0 134.0" fill="none" stroke="#4f28a8" stroke-width="2" stroke-linecap="round" stroke-linejoin="round"/>
<text x="675" y="230" text-anchor="middle" fill="#1f2937">easeInOutQuart</text>
<rect x="0.5" y="240.5" width="149" height="119" fill="none" stroke="#e5e7eb"/>
<line x1="14" x2="136" y1="328" y2="328" stroke="#c7cad1" stroke-dasharray="3 3"/>
<line x1="14" x2="136" y1="254" y2="254" stroke="#c7cad1" stroke-dasharray="3 3"/>
<path d="M14.0 328.0 L15.5 328.0 L17.1 328.0 L18.6 328.0 L20.1 328.0 L21.6 328.0 L23.1 328.0 L24.7 328.0 L26.2 328.0 L27.7 328.0 L29.3 328.0 L30.8 328.0 L32.3 328.0 L33.8 328.0 L35.3 328.0 L36.9 328.0 L38.4 328.0 L39.9 328.0 L41.5 328.0 L43.0 327.9 L44.5 327.9 L46.0 327.9 L47.6 327.9 L49.1 327.9 L50.6 327.8 L52.1 327.8 L53.6 327.7 L55.2 327.7 L56.7 327.6 L58.2 327.5 L59.8 327.5 L61.3 327.4 L62.8 327.2 L64.3 327.1 L65.8 327.0 L67.4 326.8 L68.9 326.6 L70.4 326.4 L71.9 326.2 L73.5 326.0 L75.0 325.7 L76.5 325.4 L78.0 325.0 L79.6 324.7 L81.1 324.3 L82.6 323.8 L84.1 323.3 L85.7 322.8 L87.2 322.2 L88.7 321.6 L90.3 320.9 L91.8 320.2 L93.3 319.4 L94.8 318.6 L96.4 317.6 L97.9 316.6 L99.4 315.6 L100.9 314.4 L102.5 313.2 L104.0 311.9 L105.5 310.4 L107.0 308.9 L108.5 307.3 L110.1 305.6 L111.6 303.8 L113.1 301.8 L114.6 299.7 L116.2 297.5 L117.7 295.2 L119.2 292.7 L120.8 290.0 L122.3 287.3 L123.8 284.3 L125.3 281.2 L126.9 277.9 L128.4 274.4 L129.9 270.7 L131.4 266.9 L132.9 262.8 L134.5 258.5 L136.0 254.0" fill="none" stroke="#4f28a8" stroke-width="2" stroke-linecap="round" stroke-linejoin="round"/>
<text x="75" y="350" text-anchor="middle" fill="#1f2937">easeInQuint</text>
<rect x="150.5" y="240.5" width="149" height="119" fill="none" stroke="#e5e7eb"/>
<line x1="164" x2="286" y1="328" y2="328" stroke="#c7cad1" stroke-dasharray="3 3"/>
<line x1="164" x2="286" y1="254" y2="254" stroke="#c7cad1" stroke-dasharray="3 3"/>
<path d="M164.0 328.0 L165.5 323.5 L167.1 319.2 L168.6 315.1 L170.1 311.3 L171.6 307.6 L173.2 304.1 L174.7 300.8 L176.2 297.7 L177.7 294.7 L179.3 292.0 L180.8 289.3 L182.3 286.8 L183.8 284.5 L185.3 282.3 L186.9 280.2 L188.4 278.2 L189.9 276.4 L191.4 274.7 L193.0 273.1 L194.5 271.6 L196.0 270.1 L197.6 268.8 L199.1 267.6 L200.6 266.4 L202.1 265.4 L203.7 264.4 L205.2 263.4 L206.7 262.6 L208.2 261.8 L209.8 261.1 L211.3 260.4 L212.8 259.8 L214.3 259.2 L215.8 258.7 L217.4 258.2 L218.9 257.7 L220.4 257.3 L221.9 257.0 L223.5 256.6 L225.0 256.3 L226.5 256.0 L228.1 255.8 L229.6 255.6 L231.1 255.4 L232.6 255.2 L234.1 255.0 L235.7 254.9 L237.2 254.8 L238.7 254.6 L240.3 254.5 L241.8 254.5 L243.3 254.4 L244.8 254.3 L246.4 254.3 L247.9 254.2 L249.4 254.2 L250.9 254.1 L252.4 254.1 L254.0 254.1 L255.5 254.1 L257.0 254.1 L258.6 254.0 L260.1 254.0 L261.6 254.0 L263.1 254.0 L264.6 254.0 L266.2 254.0 L267.7 254.0 L269.2 254.0 L270.8 254.0 L272.3 254.0 L273.8 254.0 L275.3 254.0 L276.9 254.0 L278.4 254.0 L279.9 254.0 L281.4 254.0 L282.9 254.0 L284.5 254.0 L286.0 254.0" fill="none" stroke="#4f28a8" stroke-width="2" stroke-linecap="round" stroke-linejoin="round"/>
<text x="225" y="350" text-anchor="middle" fill="#1f2937">easeOutQuint</text>
<rect x="300.5" y="240.5" width="149" height="119" fill="none" stroke="#e5e7eb"/>
<line x1="314" x2="436" y1="328" y2="328" stroke="#c7cad1" stroke-dasharray="3 3"/>
<line x1="314" x2="436" y1="254" y2="254" stroke="#c7cad1" stroke-dasharray="3 3"/>
<path d="M314.0 328.0 L315.5 328.0 L317.1 328.0 L318.6 328.0 L320.1 328.0 L321.6 328.0 L323.1 328.0 L324.7 328.0 L326.2 328.0 L327.7 328.0 L329.3 328.0 L330.8 327.9 L332.3 327.9 L333.8 327.9 L335.4 327.8 L336.9 327.7 L338.4 327.6 L339.9 327.5 L341.4 327.3 L343.0 327.1 L344.5 326.8 L346.0 326.5 L347.6 326.1 L349.1 325.7 L350.6 325.1 L352.1 324.5 L353.6 323.7 L355.2 322.8 L356.7 321.8 L358.2 320.6 L359.8 319.2 L361.3 317.7 L362.8 315.9 L364.3 313.9 L365.9 311.6 L367.4 309.0 L368.9 306.2 L370.4 302.9 L371.9 299.4 L373.5 295.4 L375.0 291.0 L376.5 286.6 L378.1 282.6 L379.6 279.1 L381.1 275.8 L382.6 273.0 L384.1 270.4 L385.7 268.1 L387.2 266.1 L388.7 264.3 L390.3 262.8 L391.8 261.4 L393.3 260.2 L394.8 259.2 L396.4 258.3 L397.9 257.5 L399.4 256.9 L400.9 256.3 L402.4 255.9 L404.0 255.5 L405.5 255.2 L407.0 254.9 L408.6 254.7 L410.1 254.5 L411.6 254.4 L413.1 254.3 L414.6 254.2 L416.2 254.1 L417.7 254.1 L419.2 254.1 L420.8 254.0 L422.3 254.0 L423.8 254.0 L425.3 254.0 L426.9 254.0 L428.4 254.0 L429.9 254.0 L431.4 254.0 L432.9 254.0 L434.5 254.0 L436.0 254.0" fill="none" stroke="#4f28a8" stroke-width="2" stroke-linecap="round" stroke-linejoin="round"/>
<text x="375" y="350" text-anchor="middle" fill="#1f2937">easeInOutQuint</text>
<rect x="450.5" y="240.5" width="149" height="119" fill="none" stroke="#e5e7eb"/>
<line x1="464" x2="586" y1="328" y2="328" stroke="#c7cad1" stroke-dasharray="3 3"/>
<line x1="464" x2="586" y1="254" y2="254" stroke="#c7cad1" stroke-dasharray="3 3"/>
<path d="M464.0 328.0 L465.5 328.0 L467.1 327.9 L468.6 327.9 L470.1 327.8 L471.6 327.6 L473.1 327.5 L474.7 327.3 L476.2 327.1 L477.7 326.8 L479.3 326.6 L480.8 326.3 L482.3 326.0 L483.8 325.6 L485.4 325.2 L486.9 324.8 L488.4 324.4 L489.9 323.9 L491.4 323.4 L493.0 322.9 L494.5 322.4 L496.0 321.8 L497.6 321.2 L499.1 320.6 L500.6 319.9 L502.1 319.3 L503.6 318.6 L505.2 317.8 L506.7 317.1 L508.2 316.3 L509.8 315.5 L511.3 314.7 L512.8 313.9 L514.3 313.0 L515.9 312.1 L517.4 311.2 L518.9 310.3 L520.4 309.3 L522.0 308.3 L523.5 307.3 L525.0 306.3 L526.5 305.3 L528.0 304.2 L529.6 303.2 L531.1 302.1 L532.6 300.9 L534.1 299.8 L535.7 298.7 L537.2 297.5 L538.7 296.3 L540.3 295.1 L541.8 293.9 L543.3 292.7 L544.8 291.4 L546.4 290.2 L547.9 288.9 L549.4 287.6 L550.9 286.3 L552.5 285.0 L554.0 283.7 L555.5 282.3 L557.0 281.0 L558.5 279.6 L560.1 278.2 L561.6 276.9 L563.1 275.5 L564.6 274.1 L566.2 272.7 L567.7 271.3 L569.2 269.9 L570.8 268.4 L572.3 267.0 L573.8 265.6 L575.3 264.1 L576.9 262.7 L578.4 261.3 L579.9 259.8 L581.4 258.4 L583.0 256.9 L584.5 255.5 L586.0 254.0" fill="none" stroke="#4f28a8" stroke-width="2" stroke-linecap="round" stroke-linejoin="round"/>
<text x="525" y="350" text-anchor="middle" fill="#1f2937">easeInSine</text>
<rect x="600.5" y="240.5" width="149" height="119" fill="none" stroke="#e5e7eb"/>
<line x1="614" x2="736" y1="328" y2="328" stroke="#c7cad1" stroke-dasharray="3 3"/>
<line x1="614" x2="736" y1="254" y2="254" stroke="#c7cad1" stroke-dasharray="3 3"/>
<path d="M614.0 328.0 L615.5 326.5 L617.0 325.1 L618.6 323.6 L620.1 322.2 L621.6 320.7 L623.1 319.3 L624.7 317.9 L626.2 316.4 L627.7 315.0 L629.3 313.6 L630.8 312.1 L632.3 310.7 L633.8 309.3 L635.4 307.9 L636.9 306.5 L638.4 305.1 L639.9 303.8 L641.5 302.4 L643.0 301.0 L644.5 299.7 L646.0 298.3 L647.5 297.0 L649.1 295.7 L650.6 294.4 L652.1 293.1 L653.6 291.8 L655.2 290.6 L656.7 289.3 L658.2 288.1 L659.8 286.9 L661.3 285.7 L662.8 284.5 L664.3 283.3 L665.9 282.2 L667.4 281.1 L668.9 279.9 L670.4 278.8 L672.0 277.8 L673.5 276.7 L675.0 275.7 L676.5 274.7 L678.0 273.7 L679.6 272.7 L681.1 271.7 L682.6 270.8 L684.1 269.9 L685.7 269.0 L687.2 268.1 L688.7 267.3 L690.3 266.5 L691.8 265.7 L693.3 264.9 L694.8 264.2 L696.4 263.4 L697.9 262.7 L699.4 262.1 L700.9 261.4 L702.5 260.8 L704.0 260.2 L705.5 259.6 L707.0 259.1 L708.5 258.6 L710.1 258.1 L711.6 257.6 L713.1 257.2 L714.6 256.8 L716.2 256.4 L717.7 256.0 L719.2 255.7 L720.8 255.4 L722.3 255.2 L723.8 254.9 L725.3 254.7 L726.9 254.5 L728.4 254.4 L729.9 254.2 L731.4 254.1 L733.0 254.1 L734.5 254.0 L736.0 254.0" fill="none" stroke="#4f28a8" stroke-width="2" stroke-linecap="round" stroke-linejoin="round"/>
<text x="675" y="350" text-anchor="middle" fill="#1f2937">easeOutSine</text>
<rect x="0.5" y="360.5" width="149" height="119" fill="none" stroke="#e5e7eb"/>
<line x1="14" x2="136" y1="448" y2="448" stroke="#c7cad1" stroke-dasharray="3 3"/>
<line x1="14" x2="136" y1="374" y2="374" stroke="#c7cad1" stroke-dasharray="3 3"/>
<path d="M14.0 448.0 L15.5 448.0 L17.1 447.9 L18.6 447.7 L20.1 447.5 L21.6 447.3 L23.1 447.0 L24.7 446.6 L26.2 446.2 L27.7 445.7 L29.3 445.2 L30.8 444.6 L32.3 444.0 L33.8 443.3 L35.3 442.5 L36.9 441.8 L38.4 440.9 L39.9 440.1 L41.5 439.1 L43.0 438.2 L44.5 437.2 L46.0 436.1 L47.6 435.0 L49.1 433.9 L50.6 432.7 L52.1 431.6 L53.6 430.3 L55.2 429.1 L56.7 427.8 L58.2 426.5 L59.8 425.2 L61.3 423.8 L62.8 422.4 L64.3 421.0 L65.8 419.6 L67.4 418.2 L68.9 416.8 L70.4 415.3 L71.9 413.9 L73.5 412.5 L75.0 411.0 L76.5 409.5 L78.0 408.1 L79.6 406.7 L81.1 405.2 L82.6 403.8 L84.1 402.4 L85.7 401.0 L87.2 399.6 L88.7 398.2 L90.3 396.8 L91.8 395.5 L93.3 394.2 L94.8 392.9 L96.4 391.7 L97.9 390.4 L99.4 389.3 L100.9 388.1 L102.5 387.0 L104.0 385.9 L105.5 384.8 L107.0 383.8 L108.5 382.9 L110.1 381.9 L111.6 381.1 L113.1 380.2 L114.6 379.5 L116.2 378.7 L117.7 378.0 L119.2 377.4 L120.8 376.8 L122.3 376.3 L123.8 375.8 L125.3 375.4 L126.9 375.0 L128.4 374.7 L129.9 374.5 L131.4 374.3 L132.9 374.1 L134.5 374.0 L136.0 374.0" fill="none" stroke="#4f28a8" stroke-width="2" stroke-linecap="round" stroke-linejoin="round"/>
<text x="75" y="470" text-anchor="middle" fill="#1f2937">easeInOutSine</text>
<rect x="150.5" y="360.5" width="149" height="119" fill="none" stroke="#e5e7eb"/>
<line x1="164" x2="286" y1="448" y2="448" stroke="#c7cad1" stroke-dasharray="3 3"/>
<line x1="164" x2="286" y1="374" y2="374" stroke="#c7cad1" stroke-dasharray="3 3"/>
<path d="M164.0 448.0 L165.5 447.9 L167.1 447.9 L168.6 447.9 L170.1 447.9 L171.6 447.9 L173.2 447.9 L174.7 447.9 L176.2 447.9 L177.7 447.8 L179.3 447.8 L180.8 447.8 L182.3 447.8 L183.8 447.8 L185.3 447.8 L186.9 447.7 L188.4 447.7 L189.9 447.7 L191.4 447.7 L193.0 447.6 L194.5 447.6 L196.0 447.6 L197.6 447.5 L199.1 447.5 L200.6 447.4 L202.1 447.4 L203.7 447.3 L205.2 447.3 L206.7 447.2 L208.2 447.1 L209.8 447.0 L211.3 446.9 L212.8 446.8 L214.3 446.7 L215.8 446.6 L217.4 446.5 L218.9 446.4 L220.4 446.2 L221.9 446.1 L223.5 445.9 L225.0 445.7 L226.5 445.5 L228.1 445.2 L229.6 445.0 L231.1 444.7 L232.6 444.4 L234.1 444.1 L235.7 443.8 L237.2 443.4 L238.7 443.0 L240.3 442.5 L241.8 442.0 L243.3 441.5 L244.8 440.9 L246.4 440.2 L247.9 439.5 L249.4 438.8 L250.9 437.9 L252.4 437.0 L254.0 436.0 L255.5 434.9 L257.0 433.7 L258.6 432.4 L260.1 431.0 L261.6 429.5 L263.1 427.8 L264.6 426.0 L266.2 424.0 L267.7 421.8 L269.2 419.5 L270.8 416.9 L272.3 414.1 L273.8 411.0 L275.3 407.7 L276.9 404.0 L278.4 400.0 L279.9 395.7 L281.4 390.9 L282.9 385.8 L284.5 380.1 L286.0 374.0" fill="none" stroke="#4f28a8" stroke-width="2" stroke-linecap="round" stroke-linejoin="round"/>
<text x="225" y="470" text-anchor="middle" fill="#1f2937">easeInExpo</text>
<rect x="300.5" y="360.5" width="149" height="119" fill="none" stroke="#e5e7eb"/>
<line x1="314" x2="436" y1="448" y2="448" stroke="#c7cad1" stroke-dasharray="3 3"/>
<line x1="314" x2="436" y1="374" y2="374" stroke="#c7cad1" stroke-dasharray="3 3"/>
<path d="M314.0 448.0 L315.5 441.9 L317.1 436.2 L318.6 431.1 L320.1 426.3 L321.6 422.0 L323.1 418.0 L324.7 414.3 L326.2 411.0 L327.7 407.9 L329.3 405.1 L330.8 402.5 L332.3 400.2 L333.8 398.0 L335.4 396.0 L336.9 394.2 L338.4 392.5 L339.9 391.0 L341.4 389.6 L343.0 388.3 L344.5 387.1 L346.0 386.0 L347.6 385.0 L349.1 384.1 L350.6 383.3 L352.1 382.5 L353.6 381.8 L355.2 381.1 L356.7 380.5 L358.2 380.0 L359.8 379.5 L361.3 379.0 L362.8 378.6 L364.3 378.2 L365.9 377.9 L367.4 377.6 L368.9 377.3 L370.4 377.0 L371.9 376.8 L373.5 376.5 L375.0 376.3 L376.5 376.1 L378.1 375.9 L379.6 375.8 L381.1 375.6 L382.6 375.5 L384.1 375.4 L385.7 375.3 L387.2 375.2 L388.7 375.1 L390.3 375.0 L391.8 374.9 L393.3 374.8 L394.8 374.7 L396.4 374.7 L397.9 374.6 L399.4 374.6 L400.9 374.5 L402.4 374.5 L404.0 374.4 L405.5 374.4 L407.0 374.4 L408.6 374.3 L410.1 374.3 L411.6 374.3 L413.1 374.3 L414.6 374.2 L416.2 374.2 L417.7 374.2 L419.2 374.2 L420.8 374.2 L422.3 374.2 L423.8 374.1 L425.3 374.1 L426.9 374.1 L428.4 374.1 L429.9 374.1 L431.4 374.1 L432.9 374.1 L434.5 374.1 L436.0 374.0" fill="none" stroke="#4f28a8" stroke-width="2" stroke-linecap="round" stroke-linejoin="round"/>
<text x="375" y="470" text-anchor="middle" fill="#1f2937">easeOutExpo</text>
<rect x="450.5" y="360.5" width="149" height="119" fill="none" stroke="#e5e7eb"/>
<line x1="464" x2="586" y1="448" y2="448" stroke="#c7cad1" stroke-dasharray="3 3"/>
<line x1="464" x2="586" y1="374" y2="374" stroke="#c7cad1" stroke-dasharray="3 3"/>
<path d="M464.0 448.0 L465.5 448.0 L467.1 447.9 L468.6 447.9 L470.1 447.9 L471.6 447.9 L473.1 447.9 L474.7 447.9 L476.2 447.9 L477.7 447.8 L479.3 447.8 L480.8 447.8 L482.3 447.7 L483.8 447.7 L485.4 447.6 L486.9 447.5 L488.4 447.4 L489.9 447.3 L491.4 447.2 L493.0 447.0 L494.5 446.8 L496.0 446.6 L497.6 446.4 L499.1 446.1 L500.6 445.7 L502.1 445.2 L503.6 444.7 L505.2 444.1 L506.7 443.4 L508.2 442.5 L509.8 441.5 L511.3 440.2 L512.8 438.8 L514.3 437.0 L515.9 434.9 L517.4 432.4 L518.9 429.5 L520.4 426.0 L522.0 421.8 L523.5 416.9 L525.0 411.0 L526.5 405.1 L528.0 400.2 L529.6 396.0 L531.1 392.5 L532.6 389.6 L534.1 387.1 L535.7 385.0 L537.2 383.3 L538.7 381.8 L540.3 380.5 L541.8 379.5 L543.3 378.6 L544.8 377.9 L546.4 377.3 L547.9 376.8 L549.4 376.3 L550.9 375.9 L552.5 375.6 L554.0 375.4 L555.5 375.2 L557.0 375.0 L558.5 374.8 L560.1 374.7 L561.6 374.6 L563.1 374.5 L564.6 374.4 L566.2 374.3 L567.7 374.3 L569.2 374.2 L570.8 374.2 L572.3 374.2 L573.8 374.1 L575.3 374.1 L576.9 374.1 L578.4 374.1 L579.9 374.1 L581.4 374.1 L583.0 374.1 L584.5 374.0 L586.0 374.0" fill="none" stroke="#4f28a8" stroke-width="2" stroke-linecap="round" stroke-linejoin="round"/>
<text x="525" y="470" text-anchor="middle" fill="#1f2937">easeInOutExpo</text>
<rect x="600.5" y="360.5" width="149" height="119" fill="none" stroke="#e5e7eb"/>
<line x1="614" x2="736" y1="448" y2="448" stroke="#c7cad1" stroke-dasharray="3 3"/>
<line x1="614" x2="736" y1="374" y2="374" stroke="#c7cad1" stroke-dasharray="3 3"/>
<path d="M614.0 448.0 L615.5 448.0 L617.0 448.0 L618.6 447.9 L620.1 447.9 L621.6 447.9 L623.1 447.8 L624.7 447.7 L626.2 447.6 L627.7 447.5 L629.3 447.4 L630.8 447.3 L632.3 447.2 L633.8 447.0 L635.4 446.9 L636.9 446.7 L638.4 446.5 L639.9 446.3 L641.5 446.1 L643.0 445.9 L644.5 445.7 L646.0 445.4 L647.5 445.1 L649.1 444.9 L650.6 444.6 L652.1 444.3 L653.6 444.0 L655.2 443.7 L656.7 443.3 L658.2 443.0 L659.8 442.6 L661.3 442.2 L662.8 441.8 L664.3 441.4 L665.9 441.0 L667.4 440.5 L668.9 440.1 L670.4 439.6 L672.0 439.1 L673.5 438.6 L675.0 438.1 L676.5 437.5 L678.0 437.0 L679.6 436.4 L681.1 435.8 L682.6 435.2 L684.1 434.5 L685.7 433.9 L687.2 433.2 L688.7 432.5 L690.3 431.8 L691.8 431.0 L693.3 430.2 L694.8 429.4 L696.4 428.6 L697.9 427.7 L699.4 426.8 L700.9 425.9 L702.5 425.0 L704.0 424.0 L705.5 422.9 L707.0 421.9 L708.5 420.8 L710.1 419.6 L711.6 418.4 L713.1 417.1 L714.6 415.8 L716.2 414.4 L717.7 413.0 L719.2 411.4 L720.8 409.8 L722.3 408.1 L723.8 406.3 L725.3 404.3 L726.9 402.1 L728.4 399.8 L729.9 397.1 L731.4 394.1 L733.0 390.4 L734.5 385.7 L736.0 374.0" fill="none" stroke="#4f28a8" stroke-width="2" stroke-linecap="round" stroke-linejoin="round"/>
<text x="675" y="470" text-anchor="middle" fill="#1f2937">easeInCirc</text>
<rect x="0.5" y="480.5" width="149" height="119" fill="none" stroke="#e5e7eb"/>
<line x1="14" x2="136" y1="568" y2="568" stroke="#c7cad1" stroke-dasharray="3 3"/>
<line x1="14" x2="136" y1="494" y2="494" stroke="#c7cad1" stroke-dasharray="3 3"/>
<path d="M14.0 568.0 L15.5 556.3 L17.1 551.6 L18.6 547.9 L20.1 544.9 L21.6 542.2 L23.1 539.9 L24.7 537.7 L26.2 535.7 L27.7 533.9 L29.3 532.2 L30.8 530.6 L32.3 529.0 L33.8 527.6 L35.3 526.2 L36.9 524.9 L38.4 523.6 L39.9 522.4 L41.5 521.2 L43.0 520.1 L44.5 519.1 L46.0 518.0 L47.6 517.0 L49.1 516.1 L50.6 515.2 L52.1 514.3 L53.6 513.4 L55.2 512.6 L56.7 511.8 L58.2 511.0 L59.8 510.2 L61.3 509.5 L62.8 508.8 L64.3 508.1 L65.8 507.5 L67.4 506.8 L68.9 506.2 L70.4 505.6 L71.9 505.0 L73.5 504.5 L75.0 503.9 L76.5 503.4 L78.0 502.9 L79.6 502.4 L81.1 501.9 L82.6 501.5 L84.1 501.0 L85.7 500.6 L87.2 500.2 L88.7 499.8 L90.3 499.4 L91.8 499.0 L93.3 498.7 L94.8 498.3 L96.4 498.0 L97.9 497.7 L99.4 497.4 L100.9 497.1 L102.5 496.9 L104.0 496.6 L105.5 496.3 L107.0 496.1 L108.5 495.9 L110.1 495.7 L111.6 495.5 L113.1 495.3 L114.6 495.1 L116.2 495.0 L117.7 494.8 L119.2 494.7 L120.8 494.6 L122.3 494.5 L123.8 494.4 L125.3 494.3 L126.9 494.2 L128.4 494.1 L129.9 494.1 L131.4 494.1 L132.9 494.0 L134.5 494.0 L136.0 494.0" fill="none" stroke="#4f28a8" stroke-width="2" stroke-linecap="round" stroke-linejoin="round"/>
<text x="75" y="590" text-anchor="middle" fill="#1f2937">easeOutCirc</text>
<rect x="150.5" y="480.5" width="149" height="119" fill="none" stroke="#e5e7eb"/>
<line x1="164" x2="286" y1="568" y2="568" stroke="#c7cad1" stroke-dasharray="3 3"/>
<line x1="164" x2="286" y1="494" y2="494" stroke="#c7cad1" stroke-dasharray="3 3"/>
<path d="M164.0 568.0 L165.5 568.0 L167.1 568.0 L168.6 567.9 L170.1 567.8 L171.6 567.7 L173.2 567.6 L174.7 567.4 L176.2 567.3 L177.7 567.1 L179.3 566.8 L180.8 566.6 L182.3 566.3 L183.8 566.0 L185.3 565.7 L186.9 565.3 L188.4 564.9 L189.9 564.5 L191.4 564.0 L193.0 563.6 L194.5 563.0 L196.0 562.5 L197.6 561.9 L199.1 561.3 L200.6 560.6 L202.1 559.9 L203.7 559.1 L205.2 558.3 L206.7 557.4 L208.2 556.5 L209.8 555.5 L211.3 554.4 L212.8 553.2 L214.3 551.9 L215.8 550.5 L217.4 548.9 L218.9 547.1 L220.4 545.1 L221.9 542.6 L223.5 539.2 L225.0 531.0 L226.5 522.8 L228.1 519.4 L229.6 516.9 L231.1 514.9 L232.6 513.1 L234.1 511.5 L235.7 510.1 L237.2 508.8 L238.7 507.6 L240.3 506.5 L241.8 505.5 L243.3 504.6 L244.8 503.7 L246.4 502.9 L247.9 502.1 L249.4 501.4 L250.9 500.7 L252.4 500.1 L254.0 499.5 L255.5 499.0 L257.0 498.4 L258.6 498.0 L260.1 497.5 L261.6 497.1 L263.1 496.7 L264.6 496.3 L266.2 496.0 L267.7 495.7 L269.2 495.4 L270.8 495.2 L272.3 494.9 L273.8 494.7 L275.3 494.6 L276.9 494.4 L278.4 494.3 L279.9 494.2 L281.4 494.1 L282.9 494.0 L284.5 494.0 L286.0 494.0" fill="none" stroke="#4f28a8" stroke-width="2" stroke-linecap="round" stroke-linejoin="round"/>
<text x="225" y="590" text-anchor="middle" fill="#1f2937">easeInOutCirc</text>
<rect x="300.5" y="480.5" width="149" height="119" fill="none" stroke="#e5e7eb"/>
<line x1="314" x2="436" y1="568" y2="568" stroke="#c7cad1" stroke-dasharray="3 3"/>
<line x1="314" x2="436" y1="494" y2="494" stroke="#c7cad1" stroke-dasharray="3 3"/>
<path d="M314.0 568.0 L315.5 567.9 L317.1 567.7 L318.6 567.2 L320.1 566.6 L321.6 565.8 L323.1 564.9 L324.7 563.7 L326.2 562.4 L327.7 560.9 L329.3 559.3 L330.8 557.4 L332.3 555.4 L333.8 553.2 L335.4 550.9 L336.9 548.3 L338.4 545.6 L339.9 542.7 L341.4 539.7 L343.0 536.4 L344.5 533.0 L346.0 529.4 L347.6 525.7 L349.1 521.7 L350.6 517.6 L352.1 513.3 L353.6 508.9 L355.2 504.3 L356.7 499.4 L358.2 494.5 L359.8 496.2 L361.3 498.5 L362.8 500.7 L364.3 502.6 L365.9 504.4 L367.4 506.0 L368.9 507.4 L370.4 508.6 L371.9 509.7 L373.5 510.6 L375.0 511.3 L376.5 511.9 L378.1 512.3 L379.6 512.5 L381.1 512.5 L382.6 512.3 L384.1 512.0 L385.7 511.5 L387.2 510.8 L388.7 510.0 L390.3 509.0 L391.8 507.8 L393.3 506.4 L394.8 504.8 L396.4 503.1 L397.9 501.2 L399.4 499.1 L400.9 496.9 L402.4 494.5 L404.0 495.0 L405.5 496.0 L407.0 496.9 L408.6 497.6 L410.1 498.1 L411.6 498.4 L413.1 498.6 L414.6 498.6 L416.2 498.4 L417.7 498.1 L419.2 497.5 L420.8 496.8 L422.3 495.9 L423.8 494.9 L425.3 494.2 L426.9 494.7 L428.4 495.0 L429.9 495.1 L431.4 495.1 L432.9 494.9 L434.5 494.5 L436.0 494.0" fill="none" stroke="#4f28a8" stroke-width="2" stroke-linecap="round" stroke-linejoin="round"/>
<text x="375" y="590" text-anchor="middle" fill="#1f2937">easeOutBounce</text>
<rect x="450.5" y="480.5" width="149" height="119" fill="none" stroke="#e5e7eb"/>
<line x1="464" x2="586" y1="561.2752097088533" y2="561.2752097088533" stroke="#c7cad1" stroke-dasharray="3 3"/>
<line x1="464" x2="586" y1="494" y2="494" stroke="#c7cad1" stroke-dasharray="3 3"/>
<path d="M464.0 561.3 L465.5 561.3 L467.1 561.3 L468.6 561.4 L470.1 561.5 L471.6 561.7 L473.1 561.8 L474.7 562.0 L476.2 562.2 L477.7 562.5 L479.3 562.7 L480.8 563.0 L482.3 563.2 L483.8 563.5 L485.4 563.8 L486.9 564.1 L488.4 564.4 L489.9 564.7 L491.4 565.0 L493.0 565.3 L494.5 565.6 L496.0 565.9 L497.6 566.2 L499.1 566.4 L500.6 566.7 L502.1 566.9 L503.6 567.1 L505.2 567.3 L506.7 567.5 L508.2 567.7 L509.8 567.8 L511.3 567.9 L512.8 568.0 L514.3 568.0 L515.9 568.0 L517.4 568.0 L518.9 567.9 L520.4 567.8 L522.0 567.6 L523.5 567.4 L525.0 567.2 L526.5 566.9 L528.0 566.5 L529.6 566.1 L531.1 565.7 L532.6 565.1 L534.1 564.6 L535.7 563.9 L537.2 563.2 L538.7 562.5 L540.3 561.6 L541.8 560.7 L543.3 559.7 L544.8 558.7 L546.4 557.5 L547.9 556.3 L549.4 555.0 L550.9 553.6 L552.5 552.2 L554.0 550.6 L555.5 549.0 L557.0 547.3 L558.5 545.4 L560.1 543.5 L561.6 541.5 L563.1 539.4 L564.6 537.1 L566.2 534.8 L567.7 532.4 L569.2 529.8 L570.8 527.2 L572.3 524.4 L573.8 521.5 L575.3 518.5 L576.9 515.4 L578.4 512.1 L579.9 508.8 L581.4 505.3 L583.0 501.6 L584.5 497.9 L586.0 494.0" fill="none" stroke="#4f28a8" stroke-width="2" stroke-linecap="round" stroke-linejoin="round"/>
<text x="525" y="590" text-anchor="middle" fill="#1f2937">easeInBack</text>
<rect x="600.5" y="480.5" width="149" height="119" fill="none" stroke="#e5e7eb"/>
<line x1="614" x2="736" y1="568" y2="568" stroke="#c7cad1" stroke-dasharray="3 3"/>
<line x1="614" x2="736" y1="500.72479029114675" y2="500.72479029114675" stroke="#c7cad1" stroke-dasharray="3 3"/>
<path d="M614.0 568.0 L615.5 564.1 L617.0 560.4 L618.6 556.7 L620.1 553.2 L621.6 549.9 L623.1 546.6 L624.7 543.5 L626.2 540.5 L627.7 537.6 L629.3 534.8 L630.8 532.2 L632.3 529.6 L633.8 527.2 L635.4 524.9 L636.9 522.6 L638.4 520.5 L639.9 518.5 L641.5 516.6 L643.0 514.7 L644.5 513.0 L646.0 511.4 L647.5 509.8 L649.1 508.4 L650.6 507.0 L652.1 505.7 L653.6 504.5 L655.2 503.3 L656.7 502.3 L658.2 501.3 L659.8 500.4 L661.3 499.5 L662.8 498.8 L664.3 498.1 L665.9 497.4 L667.4 496.9 L668.9 496.3 L670.4 495.9 L672.0 495.5 L673.5 495.1 L675.0 494.8 L676.5 494.6 L678.0 494.4 L679.6 494.2 L681.1 494.1 L682.6 494.0 L684.1 494.0 L685.7 494.0 L687.2 494.0 L688.7 494.1 L690.3 494.2 L691.8 494.3 L693.3 494.5 L694.8 494.7 L696.4 494.9 L697.9 495.1 L699.4 495.3 L700.9 495.6 L702.5 495.8 L704.0 496.1 L705.5 496.4 L707.0 496.7 L708.5 497.0 L710.1 497.3 L711.6 497.6 L713.1 497.9 L714.6 498.2 L716.2 498.5 L717.7 498.8 L719.2 499.0 L720.8 499.3 L722.3 499.5 L723.8 499.8 L725.3 500.0 L726.9 500.2 L728.4 500.3 L729.9 500.5 L731.4 500.6 L733.0 500.7 L734.5 500.7 L736.0 500.7" fill="none" stroke="#4f28a8" stroke-width="2" stroke-linecap="round" stroke-linejoin="round"/>
<text x="675" y="590" text-anchor="middle" fill="#1f2937">easeOutBack</text>
<rect x="0.5" y="600.5" width="149" height="119" fill="none" stroke="#e5e7eb"/>
<line x1="14" x2="136" y1="681.8281114528617" y2="681.8281114528617" stroke="#c7cad1" stroke-dasharray="3 3"/>
<line x1="14" x2="136" y1="620.1718885471383" y2="620.1718885471383" stroke="#c7cad1" stroke-dasharray="3 3"/>
<path d="M14.0 681.8 L15.5 681.9 L17.1 682.0 L18.6 682.2 L20.1 682.5 L21.6 682.9 L23.1 683.3 L24.7 683.7 L26.2 684.1 L27.7 684.6 L29.3 685.1 L30.8 685.6 L32.3 686.0 L33.8 686.5 L35.3 686.9 L36.9 687.2 L38.4 687.5 L39.9 687.8 L41.5 687.9 L43.0 688.0 L44.5 688.0 L46.0 687.8 L47.6 687.6 L49.1 687.2 L50.6 686.7 L52.1 686.0 L53.6 685.2 L55.2 684.2 L56.7 683.0 L58.2 681.6 L59.8 680.1 L61.3 678.3 L62.8 676.3 L64.3 674.0 L65.8 671.6 L67.4 668.8 L68.9 665.8 L70.4 662.6 L71.9 659.0 L73.5 655.2 L75.0 651.0 L76.5 646.8 L78.0 643.0 L79.6 639.4 L81.1 636.2 L82.6 633.2 L84.1 630.4 L85.7 628.0 L87.2 625.7 L88.7 623.7 L90.3 621.9 L91.8 620.4 L93.3 619.0 L94.8 617.8 L96.4 616.8 L97.9 616.0 L99.4 615.3 L100.9 614.8 L102.5 614.4 L104.0 614.2 L105.5 614.0 L107.0 614.0 L108.5 614.1 L110.1 614.2 L111.6 614.5 L113.1 614.8 L114.6 615.1 L116.2 615.5 L117.7 616.0 L119.2 616.4 L120.8 616.9 L122.3 617.4 L123.8 617.9 L125.3 618.3 L126.9 618.7 L128.4 619.1 L129.9 619.5 L131.4 619.8 L132.9 620.0 L134.5 620.1 L136.0 620.2" fill="none" stroke="#4f28a8" stroke-width="2" stroke-linecap="round" stroke-linejoin="round"/>
<text x="75" y="710" text-anchor="middle" fill="#1f2937">easeInOutBack</text>
<rect x="150.5" y="600.5" width="149" height="119" fill="none" stroke="#e5e7eb"/>
<line x1="164" x2="286" y1="688" y2="688" stroke="#c7cad1" stroke-dasharray="3 3"/>
<line x1="164" x2="286" y1="637.4762684487101" y2="637.4762684487101" stroke="#c7cad1" stroke-dasharray="3 3"/>
<path d="M164.0 637.5 L165.5 627.2 L167.1 620.1 L168.6 615.8 L170.1 614.0 L171.6 614.1 L173.2 615.8 L174.7 618.4 L176.2 621.6 L177.7 625.1 L179.3 628.5 L180.8 631.7 L182.3 634.5 L183.8 636.8 L185.3 638.6 L186.9 639.9 L188.4 640.7 L189.9 641.1 L191.4 641.2 L193.0 641.0 L194.5 640.6 L196.0 640.1 L197.6 639.6 L199.1 639.1 L200.6 638.5 L202.1 638.1 L203.7 637.7 L205.2 637.4 L206.7 637.2 L208.2 637.0 L209.8 636.9 L211.3 636.9 L212.8 636.9 L214.3 637.0 L215.8 637.0 L217.4 637.1 L218.9 637.2 L220.4 637.3 L221.9 637.4 L223.5 637.4 L225.0 637.5 L226.5 637.5 L228.1 637.5 L229.6 637.6 L231.1 637.6 L232.6 637.6 L234.1 637.6 L235.7 637.6 L237.2 637.5 L238.7 637.5 L240.3 637.5 L241.8 637.5 L243.3 637.5 L244.8 637.5 L246.4 637.5 L247.9 637.5 L249.4 637.5 L250.9 637.5 L252.4 637.5 L254.0 637.5 L255.5 637.5 L257.0 637.5 L258.6 637.5 L260.1 637.5 L261.6 637.5 L263.1 637.5 L264.6 637.5 L266.2 637.5 L267.7 637.5 L269.2 637.5 L270.8 637.5 L272.3 637.5 L273.8 637.5 L275.3 637.5 L276.9 637.5 L278.4 637.5 L279.9 637.5 L281.4 637.5 L282.9 637.5 L284.5 637.5 L286.0 637.5" fill="none" stroke="#4f28a8" stroke-width="2" stroke-linecap="round" stroke-linejoin="round"/>
<text x="225" y="710" text-anchor="middle" fill="#1f2937">elastic</text>
<rect x="300.5" y="600.5" width="149" height="119" fill="none" stroke="#e5e7eb"/>
<line x1="314" x2="436" y1="681.8281114528617" y2="681.8281114528617" stroke="#c7cad1" stroke-dasharray="3 3"/>
<line x1="314" x2="436" y1="620.1718885471383" y2="620.1718885471383" stroke="#c7cad1" stroke-dasharray="3 3"/>
<path d="M314.0 681.8 L315.5 681.9 L317.1 682.0 L318.6 682.2 L320.1 682.5 L321.6 682.9 L323.1 683.3 L324.7 683.7 L326.2 684.1 L327.7 684.6 L329.3 685.1 L330.8 685.6 L332.3 686.0 L333.8 686.5 L335.4 686.9 L336.9 687.2 L338.4 687.5 L339.9 687.8 L341.4 687.9 L343.0 688.0 L344.5 688.0 L346.0 687.8 L347.6 687.6 L349.1 687.2 L350.6 686.7 L352.1 686.0 L353.6 685.2 L355.2 684.2 L356.7 683.0 L358.2 681.6 L359.8 680.1 L361.3 678.3 L362.8 676.3 L364.3 674.0 L365.9 671.6 L367.4 668.8 L368.9 665.8 L370.4 662.6 L371.9 659.0 L373.5 655.2 L375.0 651.0 L376.5 646.8 L378.1 643.0 L379.6 639.4 L381.1 636.2 L382.6 633.2 L384.1 630.4 L385.7 628.0 L387.2 625.7 L388.7 623.7 L390.3 621.9 L391.8 620.4 L393.3 619.0 L394.8 617.8 L396.4 616.8 L397.9 616.0 L399.4 615.3 L400.9 614.8 L402.4 614.4 L404.0 614.2 L405.5 614.0 L407.0 614.0 L408.6 614.1 L410.1 614.2 L411.6 614.5 L413.1 614.8 L414.6 615.1 L416.2 615.5 L417.7 616.0 L419.2 616.4 L420.8 616.9 L422.3 617.4 L423.8 617.9 L425.3 618.3 L426.9 618.7 L428.4 619.1 L429.9 619.5 L431.4 619.8 L432.9 620.0 L434.5 620.1 L436.0 620.2" fill="none" stroke="#4f28a8" stroke-width="2" stroke-linecap="round" stroke-linejoin="round"/>
<text x="375" y="710" text-anchor="middle" fill="#1f2937">swingFromTo</text>
<rect x="450.5" y="600.5" width="149" height="119" fill="none" stroke="#e5e7eb"/>
<line x1="464" x2="586" y1="681.2752097088533" y2="681.2752097088533" stroke="#c7cad1" stroke-dasharray="3 3"/>
<line x1="464" x2="586" y1="614" y2="614" stroke="#c7cad1" stroke-dasharray="3 3"/>
<path d="M464.0 681.3 L465.5 681.3 L467.1 681.3 L468.6 681.4 L470.1 681.5 L471.6 681.7 L473.1 681.8 L474.7 682.0 L476.2 682.2 L477.7 682.5 L479.3 682.7 L480.8 683.0 L482.3 683.2 L483.8 683.5 L485.4 683.8 L486.9 684.1 L488.4 684.4 L489.9 684.7 L491.4 685.0 L493.0 685.3 L494.5 685.6 L496.0 685.9 L497.6 686.2 L499.1 686.4 L500.6 686.7 L502.1 686.9 L503.6 687.1 L505.2 687.3 L506.7 687.5 L508.2 687.7 L509.8 687.8 L511.3 687.9 L512.8 688.0 L514.3 688.0 L515.9 688.0 L517.4 688.0 L518.9 687.9 L520.4 687.8 L522.0 687.6 L523.5 687.4 L525.0 687.2 L526.5 686.9 L528.0 686.5 L529.6 686.1 L531.1 685.7 L532.6 685.1 L534.1 684.6 L535.7 683.9 L537.2 683.2 L538.7 682.5 L540.3 681.6 L541.8 680.7 L543.3 679.7 L544.8 678.7 L546.4 677.5 L547.9 676.3 L549.4 675.0 L550.9 673.6 L552.5 672.2 L554.0 670.6 L555.5 669.0 L557.0 667.3 L558.5 665.4 L560.1 663.5 L561.6 661.5 L563.1 659.4 L564.6 657.1 L566.2 654.8 L567.7 652.4 L569.2 649.8 L570.8 647.2 L572.3 644.4 L573.8 641.5 L575.3 638.5 L576.9 635.4 L578.4 632.1 L579.9 628.8 L581.4 625.3 L583.0 621.6 L584.5 617.9 L586.0 614.0" fill="none" stroke="#4f28a8" stroke-width="2" stroke-linecap="round" stroke-linejoin="round"/>
<text x="525" y="710" text-anchor="middle" fill="#1f2937">swingFrom</text>
<rect x="600.5" y="600.5" width="149" height="119" fill="none" stroke="#e5e7eb"/>
<line x1="614" x2="736" y1="688" y2="688" stroke="#c7cad1" stroke-dasharray="3 3"/>
<line x1="614" x2="736" y1="620.7247902911467" y2="620.7247902911467" stroke="#c7cad1" stroke-dasharray="3 3"/>
<path d="M614.0 688.0 L615.5 684.1 L617.0 680.4 L618.6 676.7 L620.1 673.2 L621.6 669.9 L623.1 666.6 L624.7 663.5 L626.2 660.5 L627.7 657.6 L629.3 654.8 L630.8 652.2 L632.3 649.6 L633.8 647.2 L635.4 644.9 L636.9 642.6 L638.4 640.5 L639.9 638.5 L641.5 636.6 L643.0 634.7 L644.5 633.0 L646.0 631.4 L647.5 629.8 L649.1 628.4 L650.6 627.0 L652.1 625.7 L653.6 624.5 L655.2 623.3 L656.7 622.3 L658.2 621.3 L659.8 620.4 L661.3 619.5 L662.8 618.8 L664.3 618.1 L665.9 617.4 L667.4 616.9 L668.9 616.3 L670.4 615.9 L672.0 615.5 L673.5 615.1 L675.0 614.8 L676.5 614.6 L678.0 614.4 L679.6 614.2 L681.1 614.1 L682.6 614.0 L684.1 614.0 L685.7 614.0 L687.2 614.0 L688.7 614.1 L690.3 614.2 L691.8 614.3 L693.3 614.5 L694.8 614.7 L696.4 614.9 L697.9 615.1 L699.4 615.3 L700.9 615.6 L702.5 615.8 L704.0 616.1 L705.5 616.4 L707.0 616.7 L708.5 617.0 L710.1 617.3 L711.6 617.6 L713.1 617.9 L714.6 618.2 L716.2 618.5 L717.7 618.8 L719.2 619.0 L720.8 619.3 L722.3 619.5 L723.8 619.8 L725.3 620.0 L726.9 620.2 L728.4 620.3 L729.9 620.5 L731.4 620.6 L733.0 620.7 L734.5 620.7 L736.0 620.7" fill="none" stroke="#4f28a8" stroke-width="2" stroke-linecap="round" stroke-linejoin="round"/>
<text x="675" y="710" text-anchor="middle" fill="#1f2937">swingTo</text>
<rect x="0.5" y="720.5" width="149" height="119" fill="none" stroke="#e5e7eb"/>
<line x1="14" x2="136" y1="808" y2="808" stroke="#c7cad1" stroke-dasharray="3 3"/>
<line x1="14" x2="136" y1="734" y2="734" stroke="#c7cad1" stroke-dasharray="3 3"/>
<path d="M14.0 808.0 L15.5 807.9 L17.1 807.7 L18.6 807.2 L20.1 806.6 L21.6 805.8 L23.1 804.9 L24.7 803.7 L26.2 802.4 L27.7 800.9 L29.3 799.3 L30.8 797.4 L32.3 795.4 L33.8 793.2 L35.3 790.9 L36.9 788.3 L38.4 785.6 L39.9 782.7 L41.5 779.7 L43.0 776.4 L44.5 773.0 L46.0 769.4 L47.6 765.7 L49.1 761.7 L50.6 757.6 L52.1 753.3 L53.6 748.9 L55.2 744.3 L56.7 739.4 L58.2 734.5 L59.8 736.2 L61.3 738.5 L62.8 740.7 L64.3 742.6 L65.8 744.4 L67.4 746.0 L68.9 747.4 L70.4 748.6 L71.9 749.7 L73.5 750.6 L75.0 751.3 L76.5 751.9 L78.0 752.3 L79.6 752.5 L81.1 752.5 L82.6 752.3 L84.1 752.0 L85.7 751.5 L87.2 750.8 L88.7 750.0 L90.3 749.0 L91.8 747.8 L93.3 746.4 L94.8 744.8 L96.4 743.1 L97.9 741.2 L99.4 739.1 L100.9 736.9 L102.5 734.5 L104.0 735.0 L105.5 736.0 L107.0 736.9 L108.5 737.6 L110.1 738.1 L111.6 738.4 L113.1 738.6 L114.6 738.6 L116.2 738.4 L117.7 738.1 L119.2 737.5 L120.8 736.8 L122.3 735.9 L123.8 734.9 L125.3 734.2 L126.9 734.7 L128.4 735.0 L129.9 735.1 L131.4 735.1 L132.9 734.9 L134.5 734.5 L136.0 734.0" fill="none" stroke="#4f28a8" stroke-width="2" stroke-linecap="round" stroke-linejoin="round"/>
<text x="75" y="830" text-anchor="middle" fill="#1f2937">bounce</text>
<rect x="150.5" y="720.5" width="149" height="119" fill="none" stroke="#e5e7eb"/>
<line x1="164" x2="286" y1="808" y2="808" stroke="#c7cad1" stroke-dasharray="3 3"/>
<line x1="164" x2="286" y1="748.7925990748844" y2="748.7925990748844" stroke="#c7cad1" stroke-dasharray="3 3"/>
<path d="M164.0 808.0 L165.5 807.9 L167.1 807.7 L168.6 807.4 L170.1 806.9 L171.6 806.3 L173.2 805.5 L174.7 804.6 L176.2 803.5 L177.7 802.3 L179.3 801.0 L180.8 799.5 L182.3 797.9 L183.8 796.2 L185.3 794.3 L186.9 792.3 L188.4 790.1 L189.9 787.8 L191.4 785.3 L193.0 782.7 L194.5 780.0 L196.0 777.1 L197.6 774.1 L199.1 771.0 L200.6 767.7 L202.1 764.3 L203.7 760.7 L205.2 757.0 L206.7 753.1 L208.2 749.2 L209.8 747.0 L211.3 745.2 L212.8 743.5 L214.3 741.9 L215.8 740.5 L217.4 739.2 L218.9 738.1 L220.4 737.1 L221.9 736.2 L223.5 735.5 L225.0 734.9 L226.5 734.5 L228.1 734.2 L229.6 734.0 L231.1 734.0 L232.6 734.1 L234.1 734.4 L235.7 734.8 L237.2 735.3 L238.7 736.0 L240.3 736.8 L241.8 737.8 L243.3 738.9 L244.8 740.1 L246.4 741.5 L247.9 743.0 L249.4 744.7 L250.9 746.5 L252.4 748.4 L254.0 748.0 L255.5 747.2 L257.0 746.5 L258.6 745.9 L260.1 745.5 L261.6 745.2 L263.1 745.1 L264.6 745.1 L266.2 745.3 L267.7 745.5 L269.2 746.0 L270.8 746.5 L272.3 747.2 L273.8 748.1 L275.3 748.7 L276.9 748.3 L278.4 748.0 L279.9 747.9 L281.4 747.9 L282.9 748.1 L284.5 748.4 L286.0 748.8" fill="none" stroke="#4f28a8" stroke-width="2" stroke-linecap="round" stroke-linejoin="round"/>
<text x="225" y="830" text-anchor="middle" fill="#1f2937">bouncePast</text>
<rect x="300.5" y="720.5" width="149" height="119" fill="none" stroke="#e5e7eb"/>
<line x1="314" x2="436" y1="808" y2="808" stroke="#c7cad1" stroke-dasharray="3 3"/>
<line x1="314" x2="436" y1="734" y2="734" stroke="#c7cad1" stroke-dasharray="3 3"/>
<path d="M314.0 808.0 L315.5 808.0 L317.1 808.0 L318.6 808.0 L320.1 808.0 L321.6 808.0 L323.1 808.0 L324.7 808.0 L326.2 807.9 L327.7 807.9 L329.3 807.9 L330.8 807.8 L332.3 807.7 L333.8 807.6 L335.4 807.4 L336.9 807.3 L338.4 807.1 L339.9 806.8 L341.4 806.5 L343.0 806.1 L344.5 805.7 L346.0 805.2 L347.6 804.6 L349.1 804.0 L350.6 803.2 L352.1 802.4 L353.6 801.4 L355.2 800.3 L356.7 799.1 L358.2 797.8 L359.8 796.3 L361.3 794.7 L362.8 792.8 L364.3 790.9 L365.9 788.7 L367.4 786.3 L368.9 783.7 L370.4 780.9 L371.9 777.9 L373.5 774.6 L375.0 771.0 L376.5 767.4 L378.1 764.1 L379.6 761.1 L381.1 758.3 L382.6 755.7 L384.1 753.3 L385.7 751.1 L387.2 749.2 L388.7 747.3 L390.3 745.7 L391.8 744.2 L393.3 742.9 L394.8 741.7 L396.4 740.6 L397.9 739.6 L399.4 738.8 L400.9 738.0 L402.4 737.4 L404.0 736.8 L405.5 736.3 L407.0 735.9 L408.6 735.5 L410.1 735.2 L411.6 734.9 L413.1 734.7 L414.6 734.6 L416.2 734.4 L417.7 734.3 L419.2 734.2 L420.8 734.1 L422.3 734.1 L423.8 734.1 L425.3 734.0 L426.9 734.0 L428.4 734.0 L429.9 734.0 L431.4 734.0 L432.9 734.0 L434.5 734.0 L436.0 734.0" fill="none" stroke="#4f28a8" stroke-width="2" stroke-linecap="round" stroke-linejoin="round"/>
<text x="375" y="830" text-anchor="middle" fill="#1f2937">easeFromTo</text>
<rect x="450.5" y="720.5" width="149" height="119" fill="none" stroke="#e5e7eb"/>
<line x1="464" x2="586" y1="808" y2="808" stroke="#c7cad1" stroke-dasharray="3 3"/>
<line x1="464" x2="586" y1="734" y2="734" stroke="#c7cad1" stroke-dasharray="3 3"/>
<path d="M464.0 808.0 L465.5 808.0 L467.1 808.0 L468.6 808.0 L470.1 808.0 L471.6 808.0 L473.1 808.0 L474.7 808.0 L476.2 808.0 L477.7 808.0 L479.3 808.0 L480.8 808.0 L482.3 808.0 L483.8 807.9 L485.4 807.9 L486.9 807.9 L488.4 807.9 L489.9 807.8 L491.4 807.8 L493.0 807.8 L494.5 807.7 L496.0 807.6 L497.6 807.6 L499.1 807.5 L500.6 807.4 L502.1 807.3 L503.6 807.2 L505.2 807.0 L506.7 806.9 L508.2 806.7 L509.8 806.5 L511.3 806.3 L512.8 806.1 L514.3 805.9 L515.9 805.6 L517.4 805.3 L518.9 805.0 L520.4 804.6 L522.0 804.2 L523.5 803.8 L525.0 803.4 L526.5 802.9 L528.0 802.4 L529.6 801.8 L531.1 801.2 L532.6 800.6 L534.1 799.9 L535.7 799.2 L537.2 798.4 L538.7 797.6 L540.3 796.7 L541.8 795.8 L543.3 794.8 L544.8 793.7 L546.4 792.6 L547.9 791.5 L549.4 790.2 L550.9 788.9 L552.5 787.6 L554.0 786.1 L555.5 784.6 L557.0 783.0 L558.5 781.3 L560.1 779.5 L561.6 777.7 L563.1 775.8 L564.6 773.7 L566.2 771.6 L567.7 769.4 L569.2 767.0 L570.8 764.6 L572.3 762.1 L573.8 759.4 L575.3 756.7 L576.9 753.8 L578.4 750.8 L579.9 747.7 L581.4 744.5 L583.0 741.1 L584.5 737.6 L586.0 734.0" fill="none" stroke="#4f28a8" stroke-width="2" stroke-linecap="round" stroke-linejoin="round"/>
<text x="525" y="830" text-anchor="middle" fill="#1f2937">easeFrom</text>
<rect x="600.5" y="720.5" width="149" height="119" fill="none" stroke="#e5e7eb"/>
<line x1="614" x2="736" y1="808" y2="808" stroke="#c7cad1" stroke-dasharray="3 3"/>
<line x1="614" x2="736" y1="734" y2="734" stroke="#c7cad1" stroke-dasharray="3 3"/>
<path d="M614.0 808.0 L615.5 783.3 L617.0 778.6 L618.6 775.4 L620.1 773.0 L621.6 771.0 L623.1 769.3 L624.7 767.8 L626.2 766.4 L627.7 765.1 L629.3 764.0 L630.8 762.9 L632.3 761.9 L633.8 761.0 L635.4 760.1 L636.9 759.3 L638.4 758.5 L639.9 757.8 L641.5 757.0 L643.0 756.3 L644.5 755.7 L646.0 755.0 L647.5 754.4 L649.1 753.8 L650.6 753.2 L652.1 752.7 L653.6 752.1 L655.2 751.6 L656.7 751.1 L658.2 750.6 L659.8 750.1 L661.3 749.6 L662.8 749.1 L664.3 748.7 L665.9 748.3 L667.4 747.8 L668.9 747.4 L670.4 747.0 L672.0 746.6 L673.5 746.2 L675.0 745.8 L676.5 745.4 L678.0 745.0 L679.6 744.6 L681.1 744.3 L682.6 743.9 L684.1 743.6 L685.7 743.2 L687.2 742.9 L688.7 742.5 L690.3 742.2 L691.8 741.9 L693.3 741.6 L694.8 741.2 L696.4 740.9 L697.9 740.6 L699.4 740.3 L700.9 740.0 L702.5 739.7 L704.0 739.4 L705.5 739.1 L707.0 738.9 L708.5 738.6 L710.1 738.3 L711.6 738.0 L713.1 737.7 L714.6 737.5 L716.2 737.2 L717.7 736.9 L719.2 736.7 L720.8 736.4 L722.3 736.2 L723.8 735.9 L725.3 735.7 L726.9 735.4 L728.4 735.2 L729.9 734.9 L731.4 734.7 L733.0 734.5 L734.5 734.2 L736.0 734.0" fill="none" stroke="#4f28a8" stroke-width="2" stroke-linecap="round" stroke-linejoin="round"/>
<text x="675" y="830" text-anchor="middle" fill="#1f2937">easeTo</text>
</svg>
